/* XPM */
static char * sol_xpm[] = {
"64 64 27 1",
" 	c #C0D470",
".	c #C1D470",
"+	c #BED36F",
"@	c #BAD06D",
"#	c #BBD16D",
"$	c #BFD36F",
"%	c #AFC968",
"&	c #BBD16E",
"*	c #ADC867",
"=	c #B5CD6B",
"-	c #C1D570",
";	c #C0D46F",
">	c #BFD46F",
",	c #C3D674",
"'	c #C8D97C",
")	c #C8D97B",
"!	c #C2D573",
"~	c #D8E494",
"{	c #D8E392",
"]	c #C7D879",
"^	c #D8E493",
"/	c #DBE597",
"(	c #CFDE86",
"_	c #C7D97B",
":	c #D0DE87",
"<	c #BFD36E",
"[	c #FFFFFF",
"                                                                ",
"                                                                ",
"                                    .    .                      ",
"                                   +@#$$***                     ",
"                  ..  ..          .***&&***.                    ",
"                 +@#$$#@+         .***==***.                    ",
"                .@***&***.         ******&+                     ",
"                .@***=***.          -&***-                      ",
"                 +*******            +***                       ",
"                  -&***-              ..                        ",
"                   +***                                         ",
"                    ..                                          ",
"                                                                ",
"                                                                ",
"                                                                ",
"                                                                ",
"                                                    ..  ..      ",
"                                                   +@#$$#@+     ",
"      ..  ..                                      .@***&***.    ",
"     ***$$***                                     .@***=***.    ",
"    .********.                                     +*******     ",
"    .********.                                      -&%%&-      ",
"     +&*****+                                        +***       ",
"      -***&-                                          ***       ",
"       ***+                             ..  ..        ***       ",
"        .***                           ***$$***                 ",
"         ***                          .***&&***.                ",
"         ***                          .********.                ",
"                                       +******+                 ",
"                                        ******                  ",
"                                         +***                   ",
"                                          ***                   ",
"                                                                ",
"                                                                ",
"                                                                ",
"                      ;;  ;;                                    ",
"                      >>  >>                                    ",
"                     ,::(!)',                                   ",
"                   ;>'//:://'>;                                 ",
"                   ;>)//~~//)>;             ;;  ;;              ",
"                     !:~///~!               >>  >>              ",
"                     >(~//:(>             ((:)!!)',             ",
"                      (~~~((             ;(:/{]]{/:(;           ",
"                       (((               ;(://((//:(;           ",
"                        ;;                 !:~//::((            ",
"                                           >(~//_<(((           ",
"                                            (~~:!>(((           ",
"                                             (((  (((           ",
"                                              ;;                ",
"        ;;  ;;                                                  ",
"       (((  >>                                                  ",
"       (::!!)'(((                                               ",
"     ;>://]]{~:((                                               ",
"     ;>)^/(~//:((                                               ",
"       !_://~:!                                                 ",
"       ><_^/:(>                                                 ",
"        >!))!>                                                  ",
"          >>                                                    ",
"          ;;                                                    ",
"                                                                ",
"                                                                ",
"                                                                ",
"                                                                ",
"                                                                "};
