/* XPM */
static char * avatar_xpm[] = {
"64 64 60 1",
" 	c #C0D470",
".	c #4A4D44",
"+	c #3B4034",
"@	c #252E18",
"#	c #ADC867",
"$	c #C1D470",
"%	c #BED36F",
"&	c #BAD06D",
"*	c #BBD16D",
"=	c #BFD36F",
"-	c #BBD16E",
";	c #B5CD6B",
">	c #C1D570",
",	c #1E260D",
"'	c #AA8B76",
")	c #A28470",
"!	c #7A6454",
"~	c #745F4F",
"{	c #816959",
"]	c #EFC4A7",
"^	c #000000",
"/	c #CAA58D",
"(	c #030000",
"_	c #020000",
":	c #511C1C",
"<	c #CCA58C",
"[	c #AFC968",
"}	c #616C42",
"|	c #626C3D",
"1	c #384225",
"2	c #DEAA85",
"3	c #E0A983",
"4	c #2E1305",
"5	c #462515",
"6	c #F99557",
"7	c #C0D46F",
"8	c #D8E494",
"9	c #DBE597",
"0	c #272F14",
"a	c #BFD46F",
"b	c #36401E",
"c	c #C8D97B",
"d	c #C2D573",
"e	c #C8D97C",
"f	c #C3D674",
"g	c #D8E392",
"h	c #C7D879",
"i	c #D0DE87",
"j	c #CFDE86",
"k	c #EFEFEF",
"l	c #5D5D5D",
"m	c #2F3719",
"n	c #323A21",
"o	c #C7D97B",
"p	c #BFD36E",
"q	c #FFFFFF",
"r	c #E3E3E3",
"s	c #2F371F",
"t	c #D8E493",
"u	c #393737",
"                                                                ",
"                       ....+++@@@@@@@@@@                        ",
"                       +...+++@@@@@@@@@@@@                      ",
"                       ++..+.+@@@@@@@@@@@@#                     ",
"                  $$  $@++....@@@@@@@@@@@@#$                    ",
"                 %&*==*@@++..+@@@@@@@@@@@@#$                    ",
"                $&###-#@@@++.@@@@@@@@@@@@@%                     ",
"                $&###;#@@@@@++@@@@@@@@@@@@                      ",
"                 %#####@@@@@@@@@@@@@@@@@@@                      ",
"                  >-###@@@@@@@@@@@@@@@@@@@                      ",
"                   %###,,,,,,,,,,,,,,,@@@@                      ",
"                    $$   ')))))))))!~{,,@@                      ",
"                         ]]^^^]]^^^//',,,^                      ",
"                         ^^^^^^^^^^^^^^^^^                      ",
"                         //^^^''^^^///,]]^                      ",
"                         /////////////,]]^                      ",
"                         ]]]]]]]]]]]/(((((          $$  $$      ",
"                         (((((((((((_(^(((         %&*==*&%     ",
"      $$  $$            ((((((((((((^^^^((        $&###-###$    ",
"     ###==###           (((::::^((((((((((        $&###;###$    ",
"    $########$          (((((((^((((((             %#######     ",
"    $########$          ((^^^^^^(((((<              >-[[->      ",
"     %-#####%            (((((((((((<<               %###       ",
"      >###->              ((((((((<<<<                ###       ",
"       ###%          }}}}}}}||}}}}}}}}}}}}}}$$        ###       ",
"        $###         }}}}}}}}|}}}}}}}}}}}}}}}##                 ",
"         ###         }}}}}}1}}}}}}}}}}|1}}}}}##$                ",
"         ###         }}}}}11}}}}}}}}}}||1}}}}##$                ",
"                     }}}}}11}}}}}}}}}}||}}}}}#%                 ",
"                     }}}}}11}|}}}}}}}}||}}}}}#                  ",
"                     }}}}111}}}}}}}}}}1|}}}}}                   ",
"                     }}}}}}}}}}}}}}}}}1|}}}}}                   ",
"                     222|}}|}}}}}}}}}} |}}}}}                   ",
"                     2222|||}}}}}}}}}}  222}}                   ",
"                     2223||||}}}}}}}}}  22222                   ",
"                     222344444444444444 22222                   ",
"                     222355555555555555 22222                   ",
"                     2223^^^^^^66^^^^^^ 22222                   ",
"                   722223^^^^^^66^^^^^^ 22222                   ",
"                   72222385555555555555 222227  77              ",
"                   ^^223390000000000000 22222a  aa              ",
"                   ^^2222900bbbbbbbbb00 22222cddcef             ",
"                 ^^^^^^^2800bbbbbbbb0b0222222ghhg9ij7           ",
"                  ^^^2222j0bbbbbbbbbbb02222229jj99ij7           ",
"                  kll^^^77mbbbbn   bbbb2^2222899iijj            ",
"                 klll^^   m1111n  n1111222222899opjjj           ",
"                kllllk    m1111n  n1111n    j88idajjj           ",
"               kllllk     m1111n  n1111n     jjj  jjj           ",
"               klllk      m1111n  n1111n      77                ",
"        77  77klllkk      m1111n  n1111n                        ",
"       jjj  aklllkk       m1111n  n1111n                        ",
"       jiiddklllkq        m111nn  n1111n                        ",
"     7ai99hrllllq         m11nsn  n1nn1n                        ",
"     7act9jqllqqj          1nsnn  nnnn1n                        ",
"       doi9qqqd            ^^^^^  mmmmmm                        ",
"       apot9ija            ^^^^^   ^^^^^                        ",
"        adccda             ^^^^^   ^^^^^                        ",
"          aa               ^^^^^   ^^^^^                        ",
"          77          ^^^^^^^^^^ ^^^^^^^                        ",
"                      ^^^^^^^^^^ ^^^^^^^                        ",
"                      ^^^^^^^^^^ ^^^^^^^                        ",
"        uuuuuuuuuuuuuuuuuuuuuuuuuuuuuuuuuuuuuuuuuuuuuuuuuuuu    ",
"        uuuuuuuuuuuuuuuuuuuuuuuuuuuuuuuuuuuuuuuuuuuuuuuuuuuu    ",
"                                                                "};
