/* XPM */
static char * exit_xpm[] = {
"64 64 325 2",
"  	c #C0D470",
". 	c #C1D470",
"+ 	c #BED36F",
"@ 	c #BAD06D",
"# 	c #BBD16D",
"$ 	c #BFD36F",
"% 	c #ADC867",
"& 	c #BBD16E",
"* 	c #A2BC61",
"= 	c #B5CD6B",
"- 	c #505460",
"; 	c #5E656F",
"> 	c #5C656C",
", 	c #5E676E",
"' 	c #596269",
") 	c #5B626A",
"! 	c #5C656E",
"~ 	c #5A636C",
"{ 	c #585F69",
"] 	c #434D59",
"^ 	c #515E67",
"/ 	c #4F5D66",
"( 	c #516067",
"_ 	c #4D5B64",
": 	c #505E67",
"< 	c #515B65",
"[ 	c #535D67",
"} 	c #4F5764",
"| 	c #C1D570",
"1 	c #475361",
"2 	c #404C5A",
"3 	c #4D5B66",
"4 	c #51626A",
"5 	c #4E5F67",
"6 	c #506169",
"7 	c #52606B",
"8 	c #555F69",
"9 	c #54616A",
"0 	c #54606C",
"a 	c #535F6B",
"b 	c #55616D",
"c 	c #47515D",
"d 	c #4A525F",
"e 	c #60676F",
"f 	c #5E6770",
"g 	c #5D6771",
"h 	c #5B636E",
"i 	c #5E6671",
"j 	c #58626E",
"k 	c #53616A",
"l 	c #525F68",
"m 	c #536069",
"n 	c #545E6A",
"o 	c #535D69",
"p 	c #57616B",
"q 	c #5B656E",
"r 	c #58626C",
"s 	c #606972",
"t 	c #545B63",
"u 	c #4D5A63",
"v 	c #4D5965",
"w 	c #4C5864",
"x 	c #4F5965",
"y 	c #4F5762",
"z 	c #525B64",
"A 	c #4F5962",
"B 	c #505A63",
"C 	c #515964",
"D 	c #535B66",
"E 	c #505664",
"F 	c #505A64",
"G 	c #505D66",
"H 	c #4E5B64",
"I 	c #4D5A62",
"J 	c #505D65",
"K 	c #4E5B63",
"L 	c #4B5763",
"M 	c #505C68",
"N 	c #505962",
"O 	c #535C65",
"P 	c #515A63",
"Q 	c #525C66",
"R 	c #000000",
"S 	c #414B57",
"T 	c #56626E",
"U 	c #4B545D",
"V 	c #5E656B",
"W 	c #5D666F",
"X 	c #57616A",
"Y 	c #545E67",
"Z 	c #5D6770",
"` 	c #5E6874",
" .	c #5A646E",
"..	c #566069",
"+.	c #444E57",
"@.	c #414B55",
"#.	c #59626B",
"$.	c #6C785A",
"%.	c #B4C769",
"&.	c #575C62",
"*.	c #56606A",
"=.	c #202430",
"-.	c #1E202D",
";.	c #292C3D",
">.	c #282B3C",
",.	c #282B3E",
"'.	c #292E41",
").	c #262B3E",
"!.	c #282D40",
"~.	c #26293C",
"{.	c #272A3B",
"].	c #282E3E",
"^.	c #292F3F",
"/.	c #202636",
"(.	c #1E202C",
"_.	c #1D212C",
":.	c #1C242F",
"<.	c #4C5660",
"[.	c #5D646C",
"}.	c #4E555B",
"|.	c #545E68",
"1.	c #4E5C67",
"2.	c #59636F",
"3.	c #57616D",
"4.	c #1C232D",
"5.	c #212531",
"6.	c #222534",
"7.	c #2A2D3E",
"8.	c #21283D",
"9.	c #1C202C",
"0.	c #222632",
"a.	c #555F6B",
"b.	c #57636F",
"c.	c #4F5963",
"d.	c #565F68",
"e.	c #4F565C",
"f.	c #374051",
"g.	c #232733",
"h.	c #202634",
"i.	c #242A3A",
"j.	c #212433",
"k.	c #232635",
"l.	c #1D202F",
"m.	c #1E2130",
"n.	c #3E4653",
"o.	c #37404F",
"p.	c #58656E",
"q.	c #50555B",
"r.	c #59636C",
"s.	c #404E59",
"t.	c #252B39",
"u.	c #252C3E",
"v.	c #3E4651",
"w.	c #565E6B",
"x.	c #2A2D40",
"y.	c #2B3043",
"z.	c #1F2233",
"A.	c #1F2130",
"B.	c #2E3444",
"C.	c #283140",
"D.	c #364252",
"E.	c #576067",
"F.	c #4D5256",
"G.	c #5B646D",
"H.	c #45515D",
"I.	c #26293A",
"J.	c #252B3B",
"K.	c #38414A",
"L.	c #4D5560",
"M.	c #22293C",
"N.	c #282D41",
"O.	c #1F2235",
"P.	c #202133",
"Q.	c #2E3545",
"R.	c #384454",
"S.	c #55626B",
"T.	c #586168",
"U.	c #51565C",
"V.	c #5A626D",
"W.	c #3E4A56",
"X.	c #4E5661",
"Y.	c #252A3D",
"Z.	c #313842",
"`.	c #54626B",
" +	c #252839",
".+	c #555D68",
"++	c #545C67",
"@+	c #272C3F",
"#+	c #24293C",
"$+	c #303741",
"%+	c #252837",
"&+	c #404853",
"*+	c #3E4450",
"=+	c #2F3640",
"-+	c #AFC968",
";+	c #242736",
">+	c #545A66",
",+	c #4E5460",
"'+	c #555B69",
")+	c #525866",
"!+	c #2E353F",
"~+	c #595F6B",
"{+	c #4A505C",
"]+	c #565C68",
"^+	c #535967",
"/+	c #2C333D",
"(+	c #3B414D",
"_+	c #373D49",
":+	c #2F3541",
"<+	c #242738",
"[+	c #464E59",
"}+	c #505662",
"|+	c #535965",
"1+	c #424854",
"2+	c #313743",
"3+	c #565E69",
"4+	c #3B434E",
"5+	c #494F5B",
"6+	c #4D535F",
"7+	c #3D4955",
"8+	c #3C424E",
"9+	c #444C57",
"0+	c #333742",
"a+	c #3F4551",
"b+	c #222838",
"c+	c #232939",
"d+	c #323642",
"e+	c #232937",
"f+	c #272D3D",
"g+	c #262C3C",
"h+	c #2E3440",
"i+	c #50575D",
"j+	c #272E3E",
"k+	c #212838",
"l+	c #2D363F",
"m+	c #51585E",
"n+	c #5A646D",
"o+	c #242B3B",
"p+	c #272E40",
"q+	c #56636C",
"r+	c #3E4B54",
"s+	c #222836",
"t+	c #262B3F",
"u+	c #242A38",
"v+	c #555F68",
"w+	c #515B67",
"x+	c #57646D",
"y+	c #3F4C55",
"z+	c #303642",
"A+	c #3D4A53",
"B+	c #212735",
"C+	c #252A3E",
"D+	c #212737",
"E+	c #1F2535",
"F+	c #222536",
"G+	c #212435",
"H+	c #292C3F",
"I+	c #272A3D",
"J+	c #505A66",
"K+	c #1D2333",
"L+	c #1B2131",
"M+	c #1E2432",
"N+	c #1A202E",
"O+	c #1D212D",
"P+	c #1E222E",
"Q+	c #202332",
"R+	c #1B212F",
"S+	c #1D2331",
"T+	c #C3D674",
"U+	c #525C68",
"V+	c #1C2232",
"W+	c #1F2533",
"X+	c #1C2230",
"Y+	c #262938",
"Z+	c #1C222E",
"`+	c #D0DE87",
" @	c #CFDE86",
".@	c #C0D46F",
"+@	c #58626B",
"@@	c #4F5B67",
"#@	c #3F4953",
"$@	c #1C1F32",
"%@	c #1E2134",
"&@	c #24273A",
"*@	c #22273A",
"=@	c #1A202C",
"-@	c #292C3B",
";@	c #1E2132",
">@	c #1D2033",
",@	c #23283B",
"'@	c #2F363E",
")@	c #4E555D",
"!@	c #1D2031",
"~@	c #212639",
"{@	c #202334",
"]@	c #515D69",
"^@	c #404A54",
"/@	c #212733",
"(@	c #1F232F",
"_@	c #1E2434",
":@	c #232637",
"<@	c #59636D",
"[@	c #4F565E",
"}@	c #1B222C",
"|@	c #1E222D",
"1@	c #1F2231",
"2@	c #1F2437",
"3@	c #1B212D",
"4@	c #515F68",
"5@	c #202538",
"6@	c #20242F",
"7@	c #2A2D3C",
"8@	c #272A39",
"9@	c #2B2E3F",
"0@	c #50575F",
"a@	c #C2D573",
"b@	c #BFD46F",
"c@	c #DBE597",
"d@	c #C7D879",
"e@	c #C8D97B",
"f@	c #D8E493",
"g@	c #C7D97B",
"h@	c #BFD36E",
"i@	c #24293D",
"j@	c #272C40",
"                                                                                                                                ",
"                                                                                                                                ",
"                                                                        .         .                                             ",
"                                                                      + @ # $ $ % % %                                           ",
"                                    . .     . .                     . % % % & & % % % .                                         ",
"                                  + @ # $ $ # @ +                   . % % * = = % % % .                                         ",
"                                . @ % % % & % % % . - ; > , ' > ) > ! ~ { % % % % & +                                           ",
"                                . @ % % % = % % % . ] ^ / ( _ : < [ [ < } & % % % |                                             ",
"                                  + % % % % % % 1 2 3 4 5 6 5 7 8 9 0 a b c d % %                                               ",
"                                    | e f g h i j a 9 k ( l m n o [ l ^ 9 m p p ! q r s t                                       ",
"                                      ! u v w x y z A A B C D E F F G H I J K B L M v a N                                       ",
"                                O P B Q Q R R R R R R R R R R R R R R R R R R R R R S T H U V                                   ",
"                                W X Y Z R R R R R R R R R R R R R R R R R R R R R R R `  .Y )                                   ",
"                                Y ..+.R R R R R R R R R R R R R R R R R R R R R R R R @.@.Y #.$.                                ",
"                        %.&.~ p ^ *.R R R R =.-.;.>.>.>.,.,.,.,.'.).!.~.{.].^./.(._.R R :.<.p < f [.                            ",
"                          }.|.1.2.3.R R 4.5.=.6.7.;.8.8.8.8.8.8.8.8.8.8.8.8.]./.9.0.=.R R D a.b.c.d.                            ",
"                          e.r 1.f.R R R 5.g.h.i.8.8.R R R R R R R R 8.8.8.8.).).j.k.l.m.R n.o.2 p.W     . .     . .             ",
"                          q.r.s.R R R R j.t.].u.8.R R R R R R R R R v.w.R 8.8.x.y.'.z.A.R B.C.D.^ E.  + @ # $ $ # @ +           ",
"            . .     . .   F.G.H.R R I.8.k.J.8.8.R R R R R R R R R R K.L.R R 8.8.M.N.O.P.R R Q.R.S.T.. @ % % % & % % % .         ",
"          % % % $ $ % % % U.V.W.R R I.8.8.8.R R R X.R R R R R R R R R R R R R 8.8.i.).Y.R R R Z.`.' . @ % % % = % % % .         ",
"        . % % % % % % % % U.V.W.R R  +8.8.8.R R .+++R R R R R R R R R R R R R R 8.8.).@+#+R R $+`.'   + % % % % % % %           ",
"        . % % % % % % % % U.V.W.R R %+8.8.R R R &+*+R R R R R R R R R R R R R R R 8.8.Y.#+R R =+`.'     | & -+-+& |             ",
"          + & % % % % % + U.V.W.R R ;+8.8.R R R R R R >+,+R R R R R R R R R R R '+)+8.8.8.R R !+`.'       + % % %               ",
"            | % % % & |   U.V.W.R R k.8.8.R R R R R R ~+{+R R R R R R R R R R R ]+^+8.8.8.R R /+`.'         % % %               ",
"              % % % +     U.V.W.R R k.8.8.R R R R R R R R R R R R R R R R (+(+_+R R 8.8.8.R R :+`.'         % % %               ",
"                . % % %   U.V.W.R R <+8.8.R R R R R R R R >+i [+R R R R R }+|+1+R R 8.8.8.R R 2+`.'                             ",
"                  % % %   U.V.W.R R <+8.8.R R R R R R R R X.3+4+R R R R R 5+6+(+R R 8.8.8.R R :+`.'                             ",
"                  % % %   e.r.7+R R  +8.8.R R R R R 8+X.9+R R R R R R R R R R R R R 8.8.8.R R 0+`.#.                            ",
"                          e.r.W.R R  +8.8.R R R R R a+h y R R R R R R R R R R R R R 8.8.8.R R 0+`.#.                            ",
"                          e.r.W.R R b+8.8.R R R R R R R R R R R R R R R R R R R R R c+8.8.R R d+`.~                             ",
"                          e.r.W.R R c+8.8.8.8.8.8.8.8.8.8.8.8.8.8.8.8.8.8.8.8.8.8.8.8.8.8.R R :+`.~                             ",
"                          e.r.W.R R e+8.8.8.8.8.8.8.8.8.8.8.8.8.8.8.8.8.8.8.8.8.8.8.8.8.8.R R :+`.~                             ",
"                          e.r.7+R R R R R R R R f+g+R R R i.i.J.R R R ).#+R R R ).Y.R R R R R h+`.~                             ",
"                          i+r.7+R R R R R R R R j+J.R R R ;.^.k+R R R ).#+R R R u.i.R R R R R l+`.~                             ",
"                          m+n+7+R R R R R R R R o+i.R R R {.g+k+R R R ;.{.R R R p+g+R R R R R l+`.~                             ",
"                          x q+r+R R s+J.Y.Y.).@+@+).).Y.).@+).Y.Y.Y.Y.).).Y.Y.Y.t+@+Y.J.u+R R h+b v+                            ",
"                          w+x+y+R R e+g+).).).).).).Y.).@+!.!.@+Y.Y.).@+@+@+@+@+).).Y.g+u+R R z+T ..                            ",
"                          w+q+A+R R s+g+@+).Y.g+@+).).).).).).).Y.).).).).@+).).).).Y.J.u+R R :+0 v+                            ",
"                          w+q+A+R R B+g+!.@+g+f+@+).).).).).).g+@+@+@+).).).t+C+f+f+g+f+i.R R h+0 v+                            ",
"                          w+x+y+R R s+].^.g+J.g+).Y.Y.@+@+g+g+].g+f+g+#+Y.@+@+Y.g+g+g+!.g+R R z+T ..                            ",
"                          w+q+y+R R c+f+g+D+E+D+).Y.).@+J.D+/.D+6.k.F+G+<+,.H+I+h.D+c+@+Y.R R z+T ..                            ",
"                          J+q+A+R R b+g+c+K+L+M+@+).).@+c+K+N+N+O+P+m.l.Q+I.{. +R+S+D+).Y.R R z+0 v+T+                          ",
"                          U+x+r+R R i.].i.K+V+W+Y.#+).].J.E+X+S+_.P+P+O+Q+Y+{. +Z+M+b+!.@+R R z+b ..`+ @.@                      ",
"                      +@@@@@q+#@R R c+).C+t+).D+$@%@&@,.,.@+).*@=@S+s+-@I.;@>@&@J.,@Y.!.#+R R '@r G / m )@                      ",
"                      r.@@M q+#@R R c+@+).@+g+e+!@z. +>.>.@+).~@N+M+s+>.{.{@;@F+].g+).!.,@R R $+r G : 9 )@                      ",
"                      n+M ]@x+^@R R c+!.).c+s+/@P+(@6.k.<+g+@+*@_@/.D+:@<+Q+m.Q+u+c+Y.@+#+R R :+<@^ : 9 [@                      ",
"                      n+M ]@x+^@R R c+].c+S+Z+}@|@|@P+l.1@i.!.).Y.#+2@;@m.m.9.P+3@X+D+@+Y.R R :+<@^ 4@S.[@                      ",
"                      n+M ]@x+^@R R c+].c+S+Z+}@|@_.P+P+m.b+).Y.N.t+5@;@m.P+9.|@3@X+D+@+Y.R R :+r ^ 4@S.[@                      ",
"                      n+M ]@q+#@R R c+!.).c+s+/@P+P+0.%+k./.D+/.t+C+,@<+;+=.P+6@u+c+Y.@+#+R R :+r G : S.[@                      ",
"                .@.@  n+]@]@q+#@R R c+@+).@+g+e+m.m.;+7@I.K+V+K+C+).).;.8@j.P+0.].g+).!.,@R R $+r G 4@S.[@                      ",
"               @ @ @  n+]@]@x+#@R R c+).C+t+).D+!@!@<+9@ +L+L+_@@+@+@+7.8@1@O+g.J.,@Y.!.#+R R '@r ^ 4@S.0@                      ",
"               @`+`+a@n+]@]@x+#@R R c+].J._@X+M+7.{.6.m.P+P+P+|@Z+S+b+).).).Y.*@N+X+b+].J.R R :+<@^ 4@S.[@                      ",
"          .@b@`+c@c@d@n+]@]@x+#@R R b+g+c+K+L+S+;.I.G+m.l.l.O+9.Z+S+b+).).).).,@R+X+D+f+i.R R :+<@^ 4@S.[@                      ",
"          .@b@e@f@c@ @n+]@]@x+#@R R c+f+J.D+E+b+x.I+&@F+F+F+6.j.h.h.c+).).).).#+W+E+c+f+i.R R :+<@^ 4@S.[@                      ",
"              a@g@`+c@n+]@]@x+#@R R c+].@+Y.J.f+!.@+).Y.).f+g+g+J.i.g+!.).).@+#+J.i.g+].i.R R :+<@^ 4@S.[@                      ",
"              b@h@g@f@n+]@]@x+#@R R b+).@+).).!.t+t+).).@+@+@+@+@+).@+!.).).@+Y.].g+@+!.i.R R :+<@^ 4@S.[@                      ",
"                b@a@e@n+]@]@x+#@R R b+).).Y.Y.).).).).).).).).Y.).#+).@+Y.).@+t+@+Y.Y.@+c+R R z+<@^ 4@S.[@                      ",
"                    b@n+]@]@x+#@R R c+).@+t+t+).@+@+).).).).).).C+i@Y.g+J.).@+t+@+#+Y.@+i.R R z+<@^ 4@S.[@                      ",
"                    .@n+]@]@x+#@R R b+).j@t+t+t+).).).).).).).@+j@C+).f+J.).@+C+!.).).!.i.R R :+<@^ 4@S.[@                      ",
"                                                                                                                                ",
"                                                                                                                                ",
"                                                                                                                                ",
"                                                                                                                                ",
"                                                                                                                                "};
